<?xml version="1.0" encoding="utf-8"?>
<!-- Generator: Adobe Illustrator 22.1.0, SVG Export Plug-In . SVG Version: 6.00 Build 0)  -->
<svg version="1.1" id="Layer_1" xmlns="http://www.w3.org/2000/svg" xmlns:xlink="http://www.w3.org/1999/xlink" x="0px" y="0px"
	 viewBox="0 0 30 30" style="enable-background:new 0 0 30 30;" xml:space="preserve">
<path d="M12.3,5.5c-3.8,0-6.8,3-6.8,6.8s3,6.8,6.8,6.8s6.8-3,6.8-6.8S16.1,5.5,12.3,5.5z M18.7,17.7l7,7c0.3,0.3,0.3,0.8,0,1.1
	s-0.8,0.3-1.1,0l-7-7c-1.4,1.2-3.3,1.9-5.3,1.9c-4.6,0-8.3-3.7-8.3-8.3S7.7,4,12.3,4s8.3,3.7,8.3,8.3C20.7,14.4,19.9,16.2,18.7,17.7
	z"/>
</svg>
